<svg width="13" height="13" viewBox="0 0 13 13" fill="none" xmlns="http://www.w3.org/2000/svg">
<g clip-path="url(#clip0_87_500)">
<path d="M6.34032 0.0839844C3.78064 0.0839844 1.70532 2.15806 1.70532 4.7162C1.70532 5.72352 2.03576 6.64784 2.58501 7.40482C2.59486 7.42296 2.5964 7.44323 2.6076 7.4606L5.6976 12.0928C5.8409 12.3076 6.08231 12.4366 6.34032 12.4366C6.59834 12.4366 6.83974 12.3076 6.98304 12.0928L10.073 7.4606C10.0844 7.44323 10.0858 7.42296 10.0956 7.40482C10.6449 6.64784 10.9753 5.72352 10.9753 4.7162C10.9753 2.15806 8.9 0.0839844 6.34032 0.0839844ZM6.34032 6.26028C5.4871 6.26028 4.79532 5.56892 4.79532 4.7162C4.79532 3.86349 5.4871 3.17213 6.34032 3.17213C7.19355 3.17213 7.88532 3.86349 7.88532 4.7162C7.88532 5.56892 7.19355 6.26028 6.34032 6.26028Z" fill="#949493"/>
</g>
<defs>
<clipPath id="clip0_87_500">
<rect width="12.36" height="12.3526" fill="white" transform="translate(0.160156 0.0839844)"/>
</clipPath>
</defs>
</svg>
