<svg width="22" height="22" viewBox="0 0 22 22" fill="none" xmlns="http://www.w3.org/2000/svg">
<path d="M4.41772 17.9541H16.7429C16.9924 17.9541 17.2016 18.0386 17.3706 18.2076C17.5397 18.3767 17.6239 18.5856 17.6233 18.8345C17.6233 19.0839 17.5388 19.2931 17.3697 19.4622C17.2007 19.6312 16.9918 19.7154 16.7429 19.7148H4.41772C4.16829 19.7148 3.95934 19.6303 3.7909 19.4613C3.62246 19.2923 3.53794 19.0833 3.53735 18.8345C3.53735 18.585 3.62187 18.3761 3.7909 18.2076C3.95993 18.0392 4.16887 17.9547 4.41772 17.9541ZM10.5803 15.6431C10.4483 15.6431 10.32 15.6138 10.1956 15.5551C10.0712 15.4964 9.96465 15.4084 9.87603 15.291L5.51819 9.70062C5.2981 9.40717 5.26875 9.09551 5.43015 8.76567C5.59155 8.43582 5.85566 8.27061 6.22249 8.27002H7.93921V2.98779C7.93921 2.73835 8.02372 2.52941 8.19276 2.36097C8.36179 2.19252 8.57073 2.10801 8.81958 2.10742H12.3411C12.5905 2.10742 12.7997 2.19194 12.9688 2.36097C13.1378 2.53 13.222 2.73894 13.2214 2.98779V8.27002H14.9382C15.305 8.27002 15.5691 8.43524 15.7305 8.76567C15.8919 9.0961 15.8625 9.40775 15.6425 9.70062L11.2846 15.291C11.1966 15.4084 11.0901 15.4964 10.965 15.5551C10.84 15.6138 10.7118 15.6431 10.5803 15.6431Z" fill="#3A3838"/>
</svg>
