<svg width="29" height="30" viewBox="0 0 29 30" fill="none" xmlns="http://www.w3.org/2000/svg">
<path d="M19.4718 10.3145L19.1121 10.6618L19.4718 10.3145C19.1509 9.9822 18.7426 9.8138 18.2803 9.8138H10.3469C10.3036 9.8138 10.284 9.80733 10.2784 9.80489C10.278 9.80446 10.2774 9.80382 10.2768 9.80293C10.2736 9.79886 10.2659 9.78765 10.2566 9.76469C10.2476 9.74229 10.2451 9.7283 10.2444 9.72164C10.2438 9.71555 10.2443 9.71276 10.2447 9.71107C10.245 9.70976 10.2503 9.68369 10.2983 9.63402L13.3018 6.52321C13.3019 6.52311 13.302 6.52301 13.3021 6.5229C13.471 6.34871 13.6641 6.21569 13.8843 6.12119C14.1025 6.02752 14.3317 5.98047 14.5761 5.98047H21.7799C22.2833 5.98117 22.7042 6.16037 23.0691 6.53827C23.4345 6.91676 23.6136 7.36052 23.6136 7.89714V15.3586C23.6136 15.6199 23.5667 15.864 23.4744 16.0948C23.3813 16.3275 23.2511 16.529 23.0831 16.703L20.0789 19.8144C20.0485 19.8459 20.0287 19.8582 20.0203 19.8624C20.0159 19.8614 20.0076 19.8591 19.995 19.8537C19.9758 19.8454 19.967 19.8387 19.9641 19.8363C19.9619 19.8345 19.9615 19.8338 19.9614 19.8335L19.9613 19.8334C19.961 19.8329 19.9577 19.8275 19.9543 19.8136C19.9507 19.7991 19.9469 19.7751 19.9469 19.7388L19.9469 11.5233L19.4469 11.5221H19.9469V11.5223C19.9478 11.0597 19.7916 10.6457 19.4718 10.3145ZM10.2766 9.80398C10.2766 9.80396 10.2769 9.80413 10.2776 9.80454L10.2766 9.80398ZM6.30245 13.7726L6.30308 13.7719C6.46982 13.5986 6.66193 13.4659 6.88265 13.3714C7.10198 13.2775 7.3317 13.2305 7.57608 13.2305L14.7796 13.2305C14.7797 13.2305 14.7799 13.2305 14.78 13.2305C15.2833 13.2312 15.7042 13.4104 16.069 13.7883C16.4345 14.1668 16.6136 14.6105 16.6136 15.1471V22.6086C16.6136 22.8699 16.5667 23.114 16.4744 23.3448C16.3813 23.5775 16.2511 23.779 16.0831 23.953L13.0789 27.0644C13.0485 27.0959 13.0287 27.1082 13.0203 27.1124C13.0159 27.1114 13.0076 27.1091 12.995 27.1037C12.9758 27.0954 12.967 27.0887 12.9641 27.0863C12.9617 27.0843 12.9615 27.0837 12.9613 27.0834C12.961 27.0829 12.9577 27.0775 12.9543 27.0636C12.9507 27.0491 12.9469 27.0251 12.9469 26.9888L12.9469 18.7733L12.4469 18.7721H12.9469V18.7728C12.9479 18.31 12.7917 17.8958 12.4718 17.5645C12.1509 17.2322 11.7426 17.0638 11.2803 17.0638H3.34692C3.30356 17.0638 3.28401 17.0573 3.27837 17.0549C3.27799 17.0545 3.27745 17.0538 3.27675 17.0529C3.27359 17.0489 3.26586 17.0377 3.25662 17.0147C3.24761 16.9923 3.24515 16.9783 3.24445 16.9716C3.24381 16.9656 3.2443 16.9628 3.24467 16.9611L3.24468 16.961C3.24506 16.9593 3.25072 16.9333 3.29829 16.884L6.30245 13.7726ZM3.27656 17.054C3.27658 17.054 3.27696 17.0541 3.27764 17.0546L3.27656 17.054Z" stroke="black"/>
</svg>
