<svg width="15" height="14" viewBox="0 0 15 14" fill="none" xmlns="http://www.w3.org/2000/svg">
<g style="mix-blend-mode:screen">
<path d="M14.3217 9.65264H4.43545L4.93184 8.6416L13.1795 8.62666C13.4584 8.62666 13.6975 8.42744 13.7473 8.15186L14.8895 1.75859C14.9193 1.59092 14.8745 1.41826 14.7649 1.28711C14.7108 1.22256 14.6432 1.17057 14.567 1.13474C14.4907 1.0989 14.4076 1.08008 14.3233 1.07959L3.83115 1.04473L3.7415 0.623047C3.68506 0.354102 3.44268 0.158203 3.16709 0.158203H0.602148C0.446722 0.158203 0.297662 0.219946 0.187759 0.329849C0.0778561 0.439752 0.0161133 0.588812 0.0161133 0.744238C0.0161133 0.899665 0.0778561 1.04872 0.187759 1.15863C0.297662 1.26853 0.446722 1.33027 0.602148 1.33027H2.69229L3.08408 3.19297L4.04863 7.86299L2.80684 9.89004C2.74235 9.97708 2.70351 10.0804 2.6947 10.1884C2.6859 10.2964 2.70749 10.4046 2.75703 10.501C2.85664 10.6985 3.05752 10.823 3.27998 10.823H4.32256C4.10029 11.1183 3.98024 11.4778 3.98057 11.8474C3.98057 12.787 4.74424 13.5507 5.68389 13.5507C6.62354 13.5507 7.38721 12.787 7.38721 11.8474C7.38721 11.4771 7.26436 11.1169 7.04521 10.823H9.71973C9.49746 11.1183 9.37741 11.4778 9.37773 11.8474C9.37773 12.787 10.1414 13.5507 11.0811 13.5507C12.0207 13.5507 12.7844 12.787 12.7844 11.8474C12.7844 11.4771 12.6615 11.1169 12.4424 10.823H14.3233C14.6454 10.823 14.9094 10.5607 14.9094 10.237C14.9084 10.0817 14.8461 9.93317 14.736 9.82369C14.6259 9.71421 14.4769 9.65272 14.3217 9.65264ZM4.0752 2.2002L13.6344 2.23174L12.698 7.47451L5.18916 7.48779L4.0752 2.2002ZM5.68389 12.372C5.39502 12.372 5.15928 12.1362 5.15928 11.8474C5.15928 11.5585 5.39502 11.3228 5.68389 11.3228C5.97275 11.3228 6.2085 11.5585 6.2085 11.8474C6.2085 11.9865 6.15322 12.1199 6.05484 12.2183C5.95646 12.3167 5.82302 12.372 5.68389 12.372ZM11.0811 12.372C10.7922 12.372 10.5564 12.1362 10.5564 11.8474C10.5564 11.5585 10.7922 11.3228 11.0811 11.3228C11.3699 11.3228 11.6057 11.5585 11.6057 11.8474C11.6057 11.9865 11.5504 12.1199 11.452 12.2183C11.3536 12.3167 11.2202 12.372 11.0811 12.372Z" fill="white"/>
</g>
</svg>
