<svg width="11" height="9" viewBox="0 0 11 9" fill="none" xmlns="http://www.w3.org/2000/svg">
<path d="M3.57556 6.68326L9.0897 1.16912C9.26104 0.997781 9.47911 0.912109 9.74392 0.912109C10.0087 0.912109 10.2268 0.997781 10.3981 1.16912C10.5695 1.34047 10.6552 1.55854 10.6552 1.82334C10.6552 2.08815 10.5695 2.30622 10.3981 2.47756L4.22978 8.64591C4.04286 8.83283 3.82479 8.92629 3.57556 8.92629C3.32634 8.92629 3.10827 8.83283 2.92135 8.64591L0.491389 6.21596C0.320046 6.04461 0.234375 5.82654 0.234375 5.56174C0.234375 5.29693 0.320046 5.07886 0.491389 4.90752C0.662732 4.73618 0.880806 4.6505 1.14561 4.6505C1.41041 4.6505 1.62848 4.73618 1.79983 4.90752L3.57556 6.68326Z" fill="#545454"/>
</svg>
